<svg width="100%" height="auto" viewBox="0 0 234 128" fill="none" xmlns="http://www.w3.org/2000/svg">
  <g clip-path="url(#clip0_102_5)">
    <path d="M41.17 2.44C35.85 4.63 30.29 6.37 25.26 9.1C15.43 14.43 14.92 20.81 25.12 24.46C40.72 30.05 56.97 34.98 73.34 37.04C113.24 42.06 153.3 41.09 192.98 34C202.32 32.33 211.63 29.19 220.25 25.2C233.21 19.21 233.86 14.22 224.85 3.53C225.49 3.07 226.13 2.62 226.78 2.16C229.22 6.13 233.87 10.3 233.54 14.03C233.12 18.79 229.73 25.47 225.77 27.3C214.64 32.45 202.81 37.07 190.79 39.19C139.23 48.29 87.66 48.41 36.43 36.18C31.07 34.9 25.81 33.22 20.47 31.83C20.09 31.73 19.5 32.46 17.51 33.87C21.19 36.04 24.09 38.76 27.44 39.57C46.67 44.19 65.89 49.01 85.36 52.36C93.89 53.83 99.42 54.46 99.62 65.42C99.86 78.35 102.71 91.24 104.54 104.13C105.29 109.43 104.36 117.78 111.6 116.98C117.17 116.36 124.62 111.18 126.86 106.1C133.05 92.03 136.93 76.94 141.76 62.27C142.4 60.34 143.29 58.49 146.13 57.21C144.7 62.51 143.28 67.81 141.83 73.11C138.16 86.54 134.57 99.99 130.77 113.39C129.01 119.61 113.8 129.35 108.03 127.02C104.36 125.54 100.26 121.54 99.18 117.84C94.75 102.71 90.9 87.35 87.91 71.88C86.56 64.9 83.05 63.49 76.96 61.98C56.62 56.93 36.3 51.56 16.41 45.01C8.32 42.32 -0.159998 36.4 1.65985e-06 26.66C0.170002 16.55 9.08 11.6 17.42 7.97C24.89 4.71 32.87 2.61 40.63 0L41.17 2.44Z" fill="white"/>
  </g>
  <defs>
    <clipPath id="clip0_102_5">
      <rect width="233.55" height="127.35" fill="white"/>
    </clipPath>
  </defs>
</svg>